<svg width="150" height="166" viewBox="0 0 150 166" fill="none" xmlns="http://www.w3.org/2000/svg">
<path d="M20.655 158.025H16.905L16.335 159.75H13.245L17.1 149.175H20.49L24.33 159.75H21.225L20.655 158.025ZM19.92 155.775L18.78 152.355L17.655 155.775H19.92ZM40.7382 152.655C40.5682 152.375 40.3332 152.16 40.0332 152.01C39.7432 151.86 39.3982 151.785 38.9982 151.785C38.2582 151.785 37.6732 152.025 37.2432 152.505C36.8232 152.985 36.6132 153.63 36.6132 154.44C36.6132 155.35 36.8382 156.045 37.2882 156.525C37.7482 156.995 38.4132 157.23 39.2832 157.23C40.3132 157.23 41.0482 156.765 41.4882 155.835H38.5332V153.72H44.0232V156.57C43.7932 157.13 43.4532 157.655 43.0032 158.145C42.5632 158.635 42.0032 159.04 41.3232 159.36C40.6432 159.67 39.8682 159.825 38.9982 159.825C37.9382 159.825 36.9982 159.6 36.1782 159.15C35.3682 158.69 34.7382 158.055 34.2882 157.245C33.8482 156.425 33.6282 155.49 33.6282 154.44C33.6282 153.4 33.8482 152.475 34.2882 151.665C34.7382 150.845 35.3682 150.21 36.1782 149.76C36.9882 149.3 37.9232 149.07 38.9832 149.07C40.3132 149.07 41.4132 149.39 42.2832 150.03C43.1532 150.67 43.6932 151.545 43.9032 152.655H40.7382ZM60.7308 158.025H56.9808L56.4108 159.75H53.3208L57.1758 149.175H60.5658L64.4058 159.75H61.3008L60.7308 158.025ZM59.9958 155.775L58.8558 152.355L57.7308 155.775H59.9958ZM80.319 159.75L77.004 155.115V159.75H74.064V149.175H77.004V153.735L80.289 149.175H83.679L79.794 154.305L83.874 159.75H80.319ZM98.7178 159.855C97.7278 159.855 96.8178 159.625 95.9878 159.165C95.1578 158.695 94.4978 158.05 94.0078 157.23C93.5278 156.4 93.2878 155.465 93.2878 154.425C93.2878 153.385 93.5278 152.455 94.0078 151.635C94.4978 150.805 95.1578 150.16 95.9878 149.7C96.8178 149.24 97.7278 149.01 98.7178 149.01C99.7178 149.01 100.628 149.24 101.448 149.7C102.278 150.16 102.933 150.805 103.413 151.635C103.893 152.455 104.133 153.385 104.133 154.425C104.133 155.465 103.893 156.4 103.413 157.23C102.933 158.05 102.278 158.695 101.448 159.165C100.618 159.625 99.7078 159.855 98.7178 159.855ZM98.7178 157.125C99.4678 157.125 100.058 156.88 100.488 156.39C100.928 155.9 101.148 155.245 101.148 154.425C101.148 153.585 100.928 152.925 100.488 152.445C100.058 151.955 99.4678 151.71 98.7178 151.71C97.9578 151.71 97.3628 151.955 96.9328 152.445C96.5028 152.925 96.2878 153.585 96.2878 154.425C96.2878 155.255 96.5028 155.915 96.9328 156.405C97.3628 156.885 97.9578 157.125 98.7178 157.125ZM122.119 149.175V151.515H119.299V159.75H116.359V151.515H113.569V149.175H122.119ZM134.847 149.175V159.75H131.907V149.175H134.847Z" fill="#D02B2E"/>
<path d="M93.619 114.978L90.035 124.75H87.655L84.071 114.978H86.171L88.859 122.748L91.533 114.978H93.619ZM101.78 118.002C101.78 118.525 101.654 119.015 101.402 119.472C101.159 119.929 100.772 120.298 100.24 120.578C99.7175 120.858 99.0548 120.998 98.2521 120.998H96.6141V124.75H94.6541V114.978H98.2521C99.0081 114.978 99.6521 115.109 100.184 115.37C100.716 115.631 101.113 115.991 101.374 116.448C101.645 116.905 101.78 117.423 101.78 118.002ZM98.1681 119.416C98.7095 119.416 99.1108 119.295 99.3721 119.052C99.6335 118.8 99.7641 118.45 99.7641 118.002C99.7641 117.05 99.2321 116.574 98.1681 116.574H96.6141V119.416H98.1681ZM111.39 124.75H109.43L104.992 118.044V124.75H103.032V114.964H104.992L109.43 121.684V114.964H111.39V124.75Z" fill="#D02B2E"/>
<path d="M85.3443 107.774C84.6389 107.762 84.1669 107.044 84.4364 106.392L109.219 46.4423C109.557 45.6246 110.712 45.6165 111.062 46.4296L149.276 135.355C149.559 136.015 149.075 136.75 148.357 136.75H127.837C127.44 136.75 127.081 136.516 126.922 136.153L114.883 108.836C114.726 108.479 114.375 108.246 113.984 108.24L85.3443 107.774Z" fill="#D02B2E"/>
<path d="M89.9801 0.25C90.3727 0.25 90.7291 0.479798 90.891 0.837492L102.443 26.3492C102.559 26.6046 102.562 26.8968 102.452 27.1546L55.8844 136.143C55.7271 136.511 55.3652 136.75 54.9648 136.75H34.3792C33.6645 136.75 33.1805 136.022 33.4571 135.363L61.0429 69.637C61.3195 68.978 60.8355 68.25 60.1208 68.25H48.625C48.0727 68.25 47.625 67.8023 47.625 67.25V57.25C47.625 56.6977 48.0727 56.25 48.625 56.25H66.9042C67.3347 56.25 67.7168 55.9746 67.8529 55.5662L69.1863 51.5662C69.4021 50.9187 68.9201 50.25 68.2376 50.25H35.625C35.0727 50.25 34.625 49.8023 34.625 49.25V38.75C34.625 38.1977 35.0727 37.75 35.625 37.75H74.4382C74.852 37.75 75.223 37.4952 75.3715 37.109L77.1023 32.609C77.3542 31.954 76.8708 31.25 76.169 31.25H59.625C59.0727 31.25 58.625 30.8023 58.625 30.25V20.25C58.625 19.6977 59.0727 19.25 59.625 19.25H82.4382C82.852 19.25 83.223 18.9952 83.3715 18.609L85.1023 14.109C85.3542 13.454 84.8708 12.75 84.169 12.75H70.125C69.5727 12.75 69.125 12.3023 69.125 11.75V1.25C69.125 0.697715 69.5727 0.25 70.125 0.25H89.9801Z" fill="url(#paint0_linear_4_33)"/>
<rect x="9.125" y="56.25" width="28" height="12" rx="1" fill="url(#paint1_linear_4_33)"/>
<rect x="0.125" y="37.75" width="24" height="12.5" rx="1" fill="url(#paint2_linear_4_33)"/>
<rect x="28.625" y="19.25" width="20" height="12" rx="1" fill="url(#paint3_linear_4_33)"/>
<rect x="50.625" y="0.75" width="8" height="12" rx="1" fill="url(#paint4_linear_4_33)"/>
<defs>
<linearGradient id="paint0_linear_4_33" x1="67.75" y1="0.25" x2="67.75" y2="136.75" gradientUnits="userSpaceOnUse">
<stop stop-color="#6599CB"/>
<stop offset="1" stop-color="#2861E8"/>
</linearGradient>
<linearGradient id="paint1_linear_4_33" x1="23.125" y1="56.25" x2="23.125" y2="68.25" gradientUnits="userSpaceOnUse">
<stop stop-color="#6599CB"/>
<stop offset="1" stop-color="#2861E8"/>
</linearGradient>
<linearGradient id="paint2_linear_4_33" x1="12.125" y1="37.75" x2="12.125" y2="50.25" gradientUnits="userSpaceOnUse">
<stop stop-color="#6599CB"/>
<stop offset="1" stop-color="#2861E8"/>
</linearGradient>
<linearGradient id="paint3_linear_4_33" x1="38.625" y1="19.25" x2="38.625" y2="31.25" gradientUnits="userSpaceOnUse">
<stop stop-color="#6599CB"/>
<stop offset="1" stop-color="#2861E8"/>
</linearGradient>
<linearGradient id="paint4_linear_4_33" x1="54.625" y1="0.75" x2="54.625" y2="12.75" gradientUnits="userSpaceOnUse">
<stop stop-color="#6599CB"/>
<stop offset="1" stop-color="#2861E8"/>
</linearGradient>
</defs>
</svg>
