<svg width="672" height="139" viewBox="0 0 672 139" fill="none" xmlns="http://www.w3.org/2000/svg">
    <path
        d="M100.372 137.966C87.642 128.325 74.07 123.504 59.6556 123.504C44.9604 123.504 28.8612 128.325 11.358 137.966L8.9712 134.175C26.9424 122.943 35.928 111.898 35.928 101.04C35.928 99.1684 35.6004 97.4368 34.9452 95.8456C34.29 94.1608 33.4008 92.71 32.2776 91.4932C31.1544 90.1828 29.844 89.2 28.3464 88.5448C26.8488 87.796 25.2576 87.4216 23.5728 87.4216C21.9816 87.4216 20.2032 87.796 18.2376 88.5448L16.4124 86.4388C20.0628 82.3204 23.7132 80.2612 27.3636 80.2612C30.2652 80.2612 33.4944 81.3844 37.0512 83.6308C36.864 71.65 32.0436 65.6596 22.59 65.6596C19.314 65.6596 16.4124 66.6424 13.8852 68.608L11.358 66.502C16.4124 60.418 21.9816 57.376 28.0656 57.376C30.1248 57.376 32.418 57.7036 34.9452 58.3588C34.9452 57.5164 34.8048 56.2996 34.524 54.7084C34.4304 54.1468 34.3836 53.632 34.3836 53.164C34.3836 52.696 34.3836 52.228 34.3836 51.76C34.3836 43.9912 35.5068 37.6264 37.7532 32.6656C39.9996 27.7984 44.2116 22.4164 50.3892 16.5196C43.4628 18.3916 37.8936 19.3276 33.6816 19.3276C30.8736 19.3276 27.3636 18.5788 23.1516 17.0812C19.782 15.8644 16.9272 15.256 14.5872 15.256C11.7792 15.256 9.5328 16.1452 7.848 17.9236C6.2568 19.6084 5.4612 21.8548 5.4612 24.6628C5.4612 24.85 5.6016 26.1136 5.8824 28.4536L2.3724 29.998C1.2492 26.6284 0.687601 23.9608 0.687601 21.9952C0.687601 16.2856 2.8872 11.3248 7.2864 7.11279C11.592 2.80718 16.6932 0.654385 22.59 0.654385C25.5852 0.654385 30.4056 1.73078 37.0512 3.88359C42.48 5.84919 46.5048 6.83199 49.1256 6.83199C53.5248 6.83199 59.4216 4.95999 66.816 1.21599L68.6412 4.16438C62.1828 9.03159 57.69 13.5712 55.1628 17.7832C52.8228 21.808 51.6528 26.956 51.6528 33.2272C51.6528 34.912 52.074 39.7324 52.9164 47.6884C53.3844 52.1812 53.7588 56.4868 54.0396 60.6052C54.3204 64.63 54.4608 68.4676 54.4608 72.118C54.4608 80.1676 53.1972 87.4684 50.67 94.0204C48.0492 100.853 43.6968 108.482 37.6128 116.906C55.9584 104.457 65.1312 88.264 65.1312 68.3272C65.1312 67.5784 64.9908 65.8936 64.71 63.2728C64.5228 60.652 64.1952 56.9548 63.7272 52.1812L62.7444 41.6512C62.6508 40.4344 62.5572 39.2644 62.4636 38.1412C62.4636 36.9244 62.4636 35.6608 62.4636 34.3504C62.4636 23.8672 65.5056 15.724 71.5896 9.92078C77.7672 4.11758 86.3316 1.21599 97.2828 1.21599H99.5292L101.635 5.84919C94.0536 6.69159 88.6248 8.61039 85.3488 11.6056C82.0728 14.6008 80.4348 19.1872 80.4348 25.3648C80.4348 26.3008 80.7156 29.5768 81.2772 35.1928C82.6812 48.6712 83.3832 57.2824 83.3832 61.0264C83.3832 70.948 81.3708 79.2316 77.346 85.8772C73.2276 92.6164 65.3652 100.9 53.7588 110.728L50.3892 113.676C60.2172 110.681 68.4072 109.184 74.9592 109.184C88.0632 109.184 99.8568 113.442 110.34 121.96L119.185 113.676L122.555 117.327L100.372 137.966ZM143.934 37.4392L160.361 52.0408L153.622 58.078V115.08L162.467 122.241L176.507 109.605V58.078L169.487 52.0408L185.773 37.4392L202.34 52.0408L195.882 58.078V110.728C195.882 118.216 197.66 121.96 201.217 121.96C202.247 121.96 203.698 121.305 205.57 119.994L208.518 123.364L188.722 138.387C187.598 137.732 186.803 137.17 186.335 136.702C184.369 135.204 182.731 133.8 181.421 132.49C180.11 131.086 179.128 129.729 178.472 128.418C177.162 125.61 176.507 121.726 176.507 116.765V114.659L150.533 138.387C142.67 131.367 135.37 126.359 128.63 123.364V120.696C131.158 119.667 132.702 118.497 133.264 117.186C133.825 115.689 134.106 112.226 134.106 106.797V58.4992L129.894 55.5508L126.103 58.4992L123.436 55.5508L143.934 37.4392ZM233.29 37.4392C233.851 37.9072 234.553 38.4688 235.396 39.124C238.953 42.1192 241.293 44.4592 242.416 46.144C243.913 48.484 244.662 51.5728 244.662 55.4104C244.662 56.6272 244.709 57.4696 244.803 57.9376L269.373 37.4392L283.974 51.9004L293.241 42.9148L296.189 46.0036C291.79 50.122 288.982 53.7724 287.765 56.9548C286.548 59.95 285.94 64.9108 285.94 71.8372V105.674C285.94 108.201 285.94 110.26 285.94 111.851C285.94 113.349 285.987 114.332 286.08 114.8C286.642 119.105 288.186 121.258 290.713 121.258C291.649 121.258 293.194 120.509 295.347 119.012C295.534 118.824 295.721 118.637 295.908 118.45C296.189 118.263 296.517 118.029 296.891 117.748L299.278 121.679L278.358 138.387C277.89 138.012 277.469 137.638 277.095 137.264C276.72 136.983 276.439 136.749 276.252 136.562C271.666 132.537 268.858 129.074 267.828 126.172C266.799 123.27 266.284 117.608 266.284 109.184V59.2012L258.562 51.1984L244.803 62.5708V117.327L251.542 124.628L234.413 138.387L217.425 124.206L225.147 116.906V65.9404C225.147 63.3196 225.1 61.1668 225.006 59.482C224.913 57.7972 224.679 56.5336 224.304 55.6912C224.023 54.7552 223.602 54.1468 223.041 53.866C222.479 53.4916 221.73 53.3044 220.794 53.3044C220.045 53.3044 218.407 54.0064 215.88 55.4104L213.634 52.3216L233.29 37.4392ZM365.615 138.387C361.496 134.643 358.641 131.414 357.05 128.699C356.301 127.389 355.646 125.751 355.085 123.785C354.617 121.82 354.195 119.62 353.821 117.186L327.426 138.387C317.223 130.712 312.122 122.054 312.122 112.413C312.122 102.585 317.551 91.3996 328.409 78.8572L330.795 76.1896L313.667 45.7228C314.415 45.8164 315.211 45.8632 316.053 45.8632C316.896 45.8632 317.785 45.8632 318.721 45.8632C327.145 45.8632 334.961 43.0552 342.168 37.4392C353.493 43.336 362.432 46.2844 368.984 46.2844C372.167 46.2844 375.162 44.7868 377.97 41.7916L380.778 43.6168C377.595 48.484 375.583 52.6024 374.741 55.972C373.898 59.248 373.477 64.9108 373.477 72.9604V107.499C373.477 111.992 373.617 114.94 373.898 116.344C374.553 120.088 376.285 121.96 379.093 121.96C380.403 121.96 382.275 121.071 384.709 119.292L386.675 121.96L365.615 138.387ZM332.761 79.2784C330.047 86.2984 328.689 93.3652 328.689 100.479C328.689 108.248 332.808 115.642 341.045 122.662L353.821 112.413V88.1236L332.761 79.2784ZM319.985 49.2328L334.867 76.0492L353.821 84.1924V60.6052L319.985 49.2328ZM411.64 37.4392C418.004 40.996 422.684 46.2844 425.68 53.3044L443.651 37.1584L457.972 54.9892L444.353 67.4848L432.7 52.8832L424.837 59.7628V115.923L434.384 123.083L443.651 115.923L446.459 119.012L422.31 138.387C414.073 130.337 405.93 125.61 397.88 124.206V121.96C399.284 121.118 400.408 120.228 401.25 119.292C402.186 118.356 402.888 117.28 403.356 116.063C403.918 114.753 404.292 113.302 404.479 111.711C404.666 110.026 404.76 108.06 404.76 105.814V65.6596C404.76 62.1028 404.62 59.6692 404.339 58.3588C403.777 56.1124 402.326 54.1 399.986 52.3216L394.09 57.2356L391.703 54.4276L411.64 37.4392ZM526.719 122.943C514.177 127.997 504.63 133.145 498.078 138.387C485.91 129.401 473.742 124.44 461.574 123.504V121.118C464.382 118.965 466.16 115.642 466.909 111.149C467.19 109.652 467.33 105.627 467.33 99.0748V53.866C478 50.3092 487.36 44.8336 495.41 37.4392C500.184 40.9024 505.144 43.8508 510.292 46.2844C515.534 48.6244 521.01 50.5432 526.719 52.0408V122.943ZM486.565 113.676L507.344 122.522V62.1496L486.565 53.164V113.676ZM607.888 122.943C595.346 127.997 585.798 133.145 579.246 138.387C567.078 129.401 554.91 124.44 542.742 123.504V121.118C545.55 118.965 547.329 115.642 548.078 111.149C548.358 109.652 548.499 105.627 548.499 99.0748V53.866C559.169 50.3092 568.529 44.8336 576.579 37.4392C581.352 40.9024 586.313 43.8508 591.461 46.2844C596.703 48.6244 602.178 50.5432 607.888 52.0408V122.943ZM567.734 113.676L588.513 122.522V62.1496L567.734 53.164V113.676ZM653.114 11.746V41.5108H669.822V52.3216H653.114V115.923C654.893 117.14 656.531 118.31 658.028 119.433C659.62 120.556 661.117 121.632 662.521 122.662L668.699 117.748L671.647 121.118L650.728 138.387C643.988 131.554 636.126 126.921 627.14 124.487V121.96C629.855 119.901 631.586 117.795 632.335 115.642C633.084 113.396 633.458 109.09 633.458 102.725V52.3216H625.034V48.952L653.114 11.746Z"
        fill="black" />
</svg>