<svg width="61" height="10" viewBox="0 0 61 10" fill="none" xmlns="http://www.w3.org/2000/svg">
<path d="M3.204 0.504V5.292C3.204 5.684 3.288 5.996 3.456 6.228C3.632 6.452 3.912 6.564 4.296 6.564C4.68 6.564 4.964 6.452 5.148 6.228C5.332 5.996 5.424 5.684 5.424 5.292V0.504H8.076V5.292C8.076 6.1 7.908 6.792 7.572 7.368C7.236 7.936 6.776 8.364 6.192 8.652C5.608 8.94 4.956 9.084 4.236 9.084C3.516 9.084 2.876 8.94 2.316 8.652C1.764 8.364 1.332 7.936 1.02 7.368C0.708 6.8 0.552 6.108 0.552 5.292V0.504H3.204ZM17.373 9H14.709L11.889 4.728V9H9.225V0.504H11.889L14.709 4.848V0.504H17.373V9ZM21.2406 0.504V9H18.5766V0.504H21.2406ZM30.9998 0.504L28.1438 9H24.6998L21.8438 0.504H24.6758L26.4278 6.348L28.1678 0.504H30.9998ZM34.2601 2.628V3.672H36.9001V5.676H34.2601V6.876H37.2601V9H31.5961V0.504H37.2601V2.628H34.2601ZM43.7121 7.716H40.8801L40.4601 9H37.6641L40.7721 0.504H43.8441L46.9401 9H44.1321L43.7121 7.716ZM43.0641 5.712L42.2961 3.348L41.5281 5.712H43.0641ZM50.8693 9.084C49.8533 9.084 49.0133 8.848 48.3493 8.376C47.6933 7.896 47.3373 7.196 47.2813 6.276H50.1133C50.1533 6.764 50.3693 7.008 50.7613 7.008C50.9053 7.008 51.0253 6.976 51.1213 6.912C51.2253 6.84 51.2773 6.732 51.2773 6.588C51.2773 6.388 51.1693 6.228 50.9533 6.108C50.7373 5.98 50.4013 5.836 49.9453 5.676C49.4013 5.484 48.9493 5.296 48.5893 5.112C48.2373 4.928 47.9333 4.66 47.6773 4.308C47.4213 3.956 47.2973 3.504 47.3053 2.952C47.3053 2.4 47.4453 1.932 47.7253 1.548C48.0133 1.156 48.4013 0.86 48.8893 0.659999C49.3853 0.46 49.9413 0.36 50.5573 0.36C51.5973 0.36 52.4213 0.6 53.0293 1.08C53.6453 1.56 53.9693 2.236 54.0013 3.108H51.1333C51.1253 2.868 51.0653 2.696 50.9533 2.592C50.8413 2.488 50.7053 2.436 50.5453 2.436C50.4333 2.436 50.3413 2.476 50.2693 2.556C50.1973 2.628 50.1613 2.732 50.1613 2.868C50.1613 3.06 50.2653 3.22 50.4733 3.348C50.6893 3.468 51.0293 3.616 51.4933 3.792C52.0293 3.992 52.4693 4.184 52.8133 4.368C53.1653 4.552 53.4693 4.808 53.7253 5.136C53.9813 5.464 54.1093 5.876 54.1093 6.372C54.1093 6.892 53.9813 7.36 53.7253 7.776C53.4693 8.184 53.0973 8.504 52.6093 8.736C52.1213 8.968 51.5413 9.084 50.8693 9.084ZM57.7093 2.628V3.672H60.3493V5.676H57.7093V6.876H60.7093V9H55.0453V0.504H60.7093V2.628H57.7093Z" fill="#454545"/>
</svg>
