<svg width="1120" height="1120" viewBox="0 0 1120 1120" fill="none" xmlns="http://www.w3.org/2000/svg">
<g filter="url(#filter0_di_1_2)">
<rect x="20" y="10" width="1080" height="1080" rx="540" fill="#EFF3FE"/>
<rect x="29" y="19" width="1062" height="1062" rx="531" stroke="white" stroke-width="18"/>
<mask id="path-3-outside-1_1_2" maskUnits="userSpaceOnUse" x="254.176" y="238.462" width="620.133" height="620.133" fill="black">
<rect fill="white" x="254.176" y="238.462" width="620.133" height="620.133"/>
<path d="M382.431 846.306L266.607 730.481L299.369 697.72L415.193 813.544L382.431 846.306ZM498.564 734.805C489.409 743.961 479.481 751.021 468.781 755.985C458.081 760.728 447.161 763.265 436.019 763.596C424.988 763.817 414.233 761.886 403.754 757.805C393.164 753.613 383.457 747.105 374.633 738.28C365.808 729.455 359.355 719.803 355.273 709.324C351.082 698.734 349.096 687.924 349.317 676.893C349.648 665.752 352.24 654.887 357.094 644.297C361.947 633.487 368.952 623.504 378.107 614.348C388.807 603.648 400.224 595.982 412.358 591.349C424.602 586.606 437.067 584.951 449.753 586.385L447.767 626.096C439.604 625.434 432.103 626.207 425.264 628.413C418.535 630.509 412.413 634.314 406.898 639.83C402.155 644.573 398.57 649.702 396.143 655.218C393.716 660.733 392.558 666.414 392.668 672.26C392.778 677.886 394.047 683.567 396.474 689.303C399.011 694.929 402.761 700.224 407.725 705.188C412.689 710.151 417.984 713.902 423.61 716.439C429.346 718.866 435.082 720.19 440.818 720.41C446.554 720.41 452.18 719.197 457.695 716.77C463.21 714.343 468.34 710.758 473.083 706.015C478.599 700.499 482.404 694.377 484.5 687.648C486.706 680.809 487.478 673.308 486.817 665.145L526.528 663.16C527.851 675.735 526.197 688.2 521.564 700.555C516.931 712.689 509.264 724.105 498.564 734.805ZM618.961 614.409C609.695 623.675 599.657 630.735 588.846 635.588C578.036 640.442 567.005 643.089 555.754 643.531C544.502 643.751 533.637 641.821 523.158 637.739C512.678 633.658 503.081 627.26 494.367 618.546C485.653 609.831 479.255 600.234 475.173 589.755C471.092 579.276 469.217 568.466 469.548 557.324C469.879 545.963 472.471 534.877 477.324 524.066C482.178 513.256 489.238 503.218 498.504 493.952C507.88 484.576 517.918 477.516 528.618 472.773C539.428 467.919 550.459 465.382 561.71 465.161C572.852 464.831 583.662 466.706 594.141 470.787C604.731 474.758 614.383 481.101 623.097 489.815C631.812 498.53 638.21 508.237 642.291 518.937C646.372 529.416 648.248 540.227 647.917 551.368C647.586 562.509 644.994 573.485 640.14 584.295C635.397 594.995 628.337 605.033 618.961 614.409ZM591.825 587.273C596.237 582.861 599.546 578.007 601.753 572.712C604.069 567.307 605.172 561.792 605.062 556.166C604.951 550.32 603.628 544.584 601.091 538.958C598.664 533.222 594.969 527.872 590.005 522.908C584.93 517.834 579.58 514.139 573.955 511.822C568.329 509.285 562.648 508.016 556.912 508.016C551.176 507.796 545.605 508.844 540.2 511.16C534.905 513.366 530.052 516.676 525.64 521.088C521.227 525.5 517.863 530.409 515.546 535.814C513.34 541.109 512.292 546.68 512.403 552.526C512.513 558.152 513.781 563.833 516.208 569.569C518.635 575.084 522.385 580.379 527.46 585.453C532.424 590.417 537.718 594.167 543.344 596.705C549.08 599.131 554.816 600.455 560.552 600.676C566.288 600.676 571.804 599.573 577.099 597.366C582.504 595.05 587.412 591.686 591.825 587.273ZM698.168 530.569L582.344 414.744L609.315 387.774L750.289 401.011L737.549 413.752L660.443 336.646L692.543 304.546L808.367 420.37L781.396 447.341L640.422 434.104L653.162 421.363L730.268 498.469L698.168 530.569ZM844.713 387.002C839.418 392.297 833.186 395 826.016 395.11C818.846 395.22 812.558 392.573 807.153 387.168C801.527 381.542 798.88 375.254 799.211 368.305C799.431 361.245 802.189 355.068 807.484 349.773C812.779 344.478 818.956 341.72 826.016 341.5C832.965 341.169 839.253 343.816 844.878 349.442C850.284 354.847 852.931 361.135 852.821 368.305C852.71 375.475 850.008 381.707 844.713 387.002Z"/>
</mask>
<path d="M382.431 846.306L266.607 730.481L299.369 697.72L415.193 813.544L382.431 846.306ZM498.564 734.805C489.409 743.961 479.481 751.021 468.781 755.985C458.081 760.728 447.161 763.265 436.019 763.596C424.988 763.817 414.233 761.886 403.754 757.805C393.164 753.613 383.457 747.105 374.633 738.28C365.808 729.455 359.355 719.803 355.273 709.324C351.082 698.734 349.096 687.924 349.317 676.893C349.648 665.752 352.24 654.887 357.094 644.297C361.947 633.487 368.952 623.504 378.107 614.348C388.807 603.648 400.224 595.982 412.358 591.349C424.602 586.606 437.067 584.951 449.753 586.385L447.767 626.096C439.604 625.434 432.103 626.207 425.264 628.413C418.535 630.509 412.413 634.314 406.898 639.83C402.155 644.573 398.57 649.702 396.143 655.218C393.716 660.733 392.558 666.414 392.668 672.26C392.778 677.886 394.047 683.567 396.474 689.303C399.011 694.929 402.761 700.224 407.725 705.188C412.689 710.151 417.984 713.902 423.61 716.439C429.346 718.866 435.082 720.19 440.818 720.41C446.554 720.41 452.18 719.197 457.695 716.77C463.21 714.343 468.34 710.758 473.083 706.015C478.599 700.499 482.404 694.377 484.5 687.648C486.706 680.809 487.478 673.308 486.817 665.145L526.528 663.16C527.851 675.735 526.197 688.2 521.564 700.555C516.931 712.689 509.264 724.105 498.564 734.805ZM618.961 614.409C609.695 623.675 599.657 630.735 588.846 635.588C578.036 640.442 567.005 643.089 555.754 643.531C544.502 643.751 533.637 641.821 523.158 637.739C512.678 633.658 503.081 627.26 494.367 618.546C485.653 609.831 479.255 600.234 475.173 589.755C471.092 579.276 469.217 568.466 469.548 557.324C469.879 545.963 472.471 534.877 477.324 524.066C482.178 513.256 489.238 503.218 498.504 493.952C507.88 484.576 517.918 477.516 528.618 472.773C539.428 467.919 550.459 465.382 561.71 465.161C572.852 464.831 583.662 466.706 594.141 470.787C604.731 474.758 614.383 481.101 623.097 489.815C631.812 498.53 638.21 508.237 642.291 518.937C646.372 529.416 648.248 540.227 647.917 551.368C647.586 562.509 644.994 573.485 640.14 584.295C635.397 594.995 628.337 605.033 618.961 614.409ZM591.825 587.273C596.237 582.861 599.546 578.007 601.753 572.712C604.069 567.307 605.172 561.792 605.062 556.166C604.951 550.32 603.628 544.584 601.091 538.958C598.664 533.222 594.969 527.872 590.005 522.908C584.93 517.834 579.58 514.139 573.955 511.822C568.329 509.285 562.648 508.016 556.912 508.016C551.176 507.796 545.605 508.844 540.2 511.16C534.905 513.366 530.052 516.676 525.64 521.088C521.227 525.5 517.863 530.409 515.546 535.814C513.34 541.109 512.292 546.68 512.403 552.526C512.513 558.152 513.781 563.833 516.208 569.569C518.635 575.084 522.385 580.379 527.46 585.453C532.424 590.417 537.718 594.167 543.344 596.705C549.08 599.131 554.816 600.455 560.552 600.676C566.288 600.676 571.804 599.573 577.099 597.366C582.504 595.05 587.412 591.686 591.825 587.273ZM698.168 530.569L582.344 414.744L609.315 387.774L750.289 401.011L737.549 413.752L660.443 336.646L692.543 304.546L808.367 420.37L781.396 447.341L640.422 434.104L653.162 421.363L730.268 498.469L698.168 530.569ZM844.713 387.002C839.418 392.297 833.186 395 826.016 395.11C818.846 395.22 812.558 392.573 807.153 387.168C801.527 381.542 798.88 375.254 799.211 368.305C799.431 361.245 802.189 355.068 807.484 349.773C812.779 344.478 818.956 341.72 826.016 341.5C832.965 341.169 839.253 343.816 844.878 349.442C850.284 354.847 852.931 361.135 852.821 368.305C852.71 375.475 850.008 381.707 844.713 387.002Z" fill="url(#paint0_linear_1_2)"/>
<path d="M382.431 846.306L377.835 850.902L382.431 855.498L387.028 850.902L382.431 846.306ZM266.607 730.481L262.011 725.885L257.415 730.481L262.011 735.078L266.607 730.481ZM299.369 697.72L303.965 693.124L299.369 688.527L294.773 693.124L299.369 697.72ZM415.193 813.544L419.789 818.14L424.385 813.544L419.789 808.948L415.193 813.544ZM382.431 846.306L387.028 841.709L271.203 725.885L266.607 730.481L262.011 735.078L377.835 850.902L382.431 846.306ZM266.607 730.481L271.203 735.078L303.965 702.316L299.369 697.72L294.773 693.124L262.011 725.885L266.607 730.481ZM299.369 697.72L294.773 702.316L410.597 818.14L415.193 813.544L419.789 808.948L303.965 693.124L299.369 697.72ZM415.193 813.544L410.597 808.948L377.835 841.709L382.431 846.306L387.028 850.902L419.789 818.14L415.193 813.544ZM468.781 755.985L471.415 761.927L471.466 761.904L471.516 761.881L468.781 755.985ZM436.019 763.596L436.149 770.095L436.181 770.094L436.212 770.093L436.019 763.596ZM403.754 757.805L401.362 763.849L401.378 763.855L401.395 763.862L403.754 757.805ZM355.273 709.324L361.33 706.965L361.324 706.948L361.317 706.932L355.273 709.324ZM349.317 676.893L342.82 676.7L342.819 676.732L342.818 676.763L349.317 676.893ZM357.094 644.297L363.002 647.005L363.013 646.982L363.023 646.959L357.094 644.297ZM412.358 591.349L414.677 597.421L414.691 597.416L414.706 597.41L412.358 591.349ZM449.753 586.385L456.245 586.71L456.55 580.612L450.483 579.926L449.753 586.385ZM447.767 626.096L447.242 632.575L453.924 633.117L454.259 626.421L447.767 626.096ZM425.264 628.413L427.197 634.619L427.229 634.609L427.26 634.599L425.264 628.413ZM396.143 655.218L402.092 657.836L402.092 657.836L396.143 655.218ZM392.668 672.26L386.169 672.383L386.169 672.388L392.668 672.26ZM396.474 689.303L390.487 691.836L390.517 691.906L390.548 691.975L396.474 689.303ZM423.61 716.439L420.937 722.364L421.007 722.396L421.077 722.425L423.61 716.439ZM440.818 720.41L440.568 726.905L440.693 726.91L440.818 726.91L440.818 720.41ZM457.695 716.77L455.077 710.82L455.077 710.82L457.695 716.77ZM484.5 687.648L478.314 685.653L478.304 685.684L478.294 685.715L484.5 687.648ZM486.817 665.145L486.492 658.654L479.796 658.988L480.338 665.671L486.817 665.145ZM526.528 663.16L532.992 662.479L532.348 656.361L526.203 656.668L526.528 663.16ZM521.564 700.555L527.636 702.873L527.643 702.855L527.65 702.837L521.564 700.555ZM498.564 734.805L493.968 730.209C485.299 738.878 475.989 745.475 466.046 750.088L468.781 755.985L471.516 761.881C482.973 756.566 493.518 749.044 503.161 739.402L498.564 734.805ZM468.781 755.985L466.147 750.042C456.178 754.462 446.084 756.794 435.826 757.099L436.019 763.596L436.212 770.093C448.237 769.736 459.984 766.994 471.415 761.927L468.781 755.985ZM436.019 763.596L435.889 757.097C425.726 757.301 415.815 755.527 406.113 751.748L403.754 757.805L401.395 763.862C412.651 768.246 424.251 770.333 436.149 770.095L436.019 763.596ZM403.754 757.805L406.146 751.761C396.459 747.926 387.486 741.941 379.229 733.684L374.633 738.28L370.036 742.876C379.429 752.268 389.87 759.3 401.362 763.849L403.754 757.805ZM374.633 738.28L379.229 733.684C370.97 725.426 365.051 716.518 361.33 706.965L355.273 709.324L349.217 711.683C353.659 723.089 360.645 733.485 370.036 742.876L374.633 738.28ZM355.273 709.324L361.317 706.932C357.433 697.118 355.613 687.164 355.815 677.023L349.317 676.893L342.818 676.763C342.58 688.685 344.731 700.351 349.23 711.716L355.273 709.324ZM349.317 676.893L355.814 677.086C356.118 666.854 358.495 656.841 363.002 647.005L357.094 644.297L351.185 641.589C345.985 652.933 343.178 664.651 342.82 676.7L349.317 676.893ZM357.094 644.297L363.023 646.959C367.525 636.933 374.054 627.594 382.704 618.945L378.107 614.348L373.511 609.752C363.849 619.414 356.369 630.04 351.164 641.635L357.094 644.297ZM378.107 614.348L382.704 618.945C392.862 608.786 403.527 601.679 414.677 597.421L412.358 591.349L410.04 585.277C396.921 590.285 384.752 598.511 373.511 609.752L378.107 614.348ZM412.358 591.349L414.706 597.41C426.001 593.035 437.411 591.531 449.023 592.844L449.753 586.385L450.483 579.926C436.724 578.371 423.204 580.177 410.01 585.288L412.358 591.349ZM449.753 586.385L443.261 586.061L441.275 625.772L447.767 626.096L454.259 626.421L456.245 586.71L449.753 586.385ZM447.767 626.096L448.293 619.617C439.396 618.896 431.026 619.724 423.269 622.227L425.264 628.413L427.26 634.599C433.18 632.689 439.812 631.973 447.242 632.575L447.767 626.096ZM425.264 628.413L423.331 622.207C415.494 624.648 408.481 629.055 402.302 635.233L406.898 639.83L411.494 644.426C416.346 639.574 421.577 636.369 427.197 634.619L425.264 628.413ZM406.898 639.83L402.302 635.233C397.053 640.482 392.979 646.268 390.193 652.6L396.143 655.218L402.092 657.836C404.16 653.137 407.256 648.664 411.494 644.426L406.898 639.83ZM396.143 655.218L390.193 652.6C387.399 658.951 386.041 665.565 386.169 672.383L392.668 672.26L399.167 672.138C399.075 667.263 400.033 662.515 402.092 657.836L396.143 655.218ZM392.668 672.26L386.169 672.388C386.297 678.925 387.773 685.419 390.487 691.836L396.474 689.303L402.46 686.77C400.321 681.715 399.259 676.848 399.167 672.133L392.668 672.26ZM396.474 689.303L390.548 691.975C393.45 698.409 397.685 704.34 403.129 709.784L407.725 705.188L412.321 700.591C407.838 696.108 404.572 691.449 402.399 686.631L396.474 689.303ZM407.725 705.188L403.129 709.784C408.573 715.228 414.504 719.463 420.937 722.364L423.61 716.439L426.282 710.514C421.464 708.341 416.805 705.075 412.321 700.591L407.725 705.188ZM423.61 716.439L421.077 722.425C427.475 725.132 433.982 726.652 440.568 726.905L440.818 720.41L441.068 713.915C436.181 713.727 431.216 712.599 426.142 710.453L423.61 716.439ZM440.818 720.41L440.818 726.91C447.5 726.91 454.015 725.491 460.313 722.719L457.695 716.77L455.077 710.82C450.344 712.903 445.607 713.91 440.818 713.91L440.818 720.41ZM457.695 716.77L460.313 722.719C466.645 719.933 472.43 715.86 477.679 710.611L473.083 706.015L468.487 701.419C464.249 705.656 459.776 708.753 455.077 710.82L457.695 716.77ZM473.083 706.015L477.679 710.611C483.858 704.432 488.265 697.419 490.706 689.581L484.5 687.648L478.294 685.715C476.544 691.336 473.339 696.567 468.487 701.419L473.083 706.015ZM484.5 687.648L490.686 689.644C493.189 681.886 494.017 673.516 493.295 664.62L486.817 665.145L480.338 665.671C480.94 673.1 480.224 679.732 478.314 685.653L484.5 687.648ZM486.817 665.145L487.141 671.637L526.852 669.652L526.528 663.16L526.203 656.668L486.492 658.654L486.817 665.145ZM526.528 663.16L520.063 663.84C521.277 675.368 519.772 686.82 515.478 698.272L521.564 700.555L527.65 702.837C532.621 689.58 534.426 676.102 532.992 662.479L526.528 663.16ZM521.564 700.555L515.491 698.236C511.234 709.386 504.127 720.05 493.968 730.209L498.564 734.805L503.161 739.402C514.402 728.161 522.627 715.991 527.636 702.873L521.564 700.555ZM588.846 635.588L591.509 641.518L591.509 641.518L588.846 635.588ZM555.754 643.531L555.881 650.029L555.945 650.028L556.009 650.026L555.754 643.531ZM523.158 637.739L520.799 643.796L520.799 643.796L523.158 637.739ZM475.173 589.755L469.117 592.114L469.117 592.114L475.173 589.755ZM469.548 557.324L476.045 557.517L476.045 557.514L469.548 557.324ZM477.324 524.066L471.395 521.404L471.395 521.404L477.324 524.066ZM528.618 472.773L531.252 478.715L531.266 478.709L531.28 478.703L528.618 472.773ZM561.71 465.161L561.838 471.66L561.871 471.66L561.903 471.659L561.71 465.161ZM594.141 470.787L591.782 476.844L591.821 476.859L591.859 476.873L594.141 470.787ZM642.291 518.937L636.218 521.254L636.226 521.275L636.234 521.296L642.291 518.937ZM647.917 551.368L654.414 551.561L654.414 551.561L647.917 551.368ZM640.14 584.295L634.21 581.633L634.204 581.647L634.198 581.661L640.14 584.295ZM601.753 572.712L595.778 570.152L595.765 570.182L595.753 570.212L601.753 572.712ZM605.062 556.166L598.563 556.289L598.563 556.294L605.062 556.166ZM601.091 538.958L595.104 541.491L595.134 541.561L595.165 541.63L601.091 538.958ZM573.955 511.822L571.283 517.747L571.381 517.792L571.48 517.832L573.955 511.822ZM556.912 508.016L556.662 514.512L556.787 514.516L556.912 514.516L556.912 508.016ZM540.2 511.16L542.7 517.16L542.731 517.148L542.761 517.135L540.2 511.16ZM515.546 535.814L509.572 533.254L509.559 533.284L509.546 533.314L515.546 535.814ZM512.403 552.526L505.904 552.649L505.904 552.653L512.403 552.526ZM516.208 569.569L510.222 572.101L510.24 572.144L510.259 572.186L516.208 569.569ZM543.344 596.705L540.672 602.63L540.741 602.661L540.811 602.691L543.344 596.705ZM560.552 600.676L560.302 607.171L560.427 607.176L560.552 607.176L560.552 600.676ZM577.099 597.366L579.599 603.366L579.629 603.354L579.659 603.341L577.099 597.366ZM618.961 614.409L614.364 609.813C605.598 618.58 596.202 625.161 586.184 629.659L588.846 635.588L591.509 641.518C603.112 636.309 613.792 628.771 623.557 619.005L618.961 614.409ZM588.846 635.588L586.184 629.659C576.092 634.19 565.876 636.629 555.499 637.036L555.754 643.531L556.009 650.026C568.134 649.55 579.98 646.694 591.509 641.518L588.846 635.588ZM555.754 643.531L555.626 637.032C545.224 637.236 535.203 635.455 525.517 631.683L523.158 637.739L520.799 643.796C532.07 648.186 543.781 650.267 555.881 650.029L555.754 643.531ZM523.158 637.739L525.517 631.683C515.954 627.958 507.103 622.089 498.963 613.949L494.367 618.546L489.771 623.142C499.06 632.431 509.403 639.358 520.799 643.796L523.158 637.739ZM494.367 618.546L498.963 613.949C490.824 605.81 484.955 596.959 481.23 587.396L475.173 589.755L469.117 592.114C473.555 603.51 480.481 613.852 489.771 623.142L494.367 618.546ZM475.173 589.755L481.23 587.396C477.462 577.722 475.74 567.779 476.045 557.517L469.548 557.324L463.05 557.131C462.693 569.152 464.722 580.83 469.117 592.114L475.173 589.755ZM469.548 557.324L476.045 557.514C476.35 547.042 478.735 536.794 483.254 526.729L477.324 524.066L471.395 521.404C466.206 532.96 463.407 544.883 463.05 557.135L469.548 557.324ZM477.324 524.066L483.254 526.729C487.752 516.711 494.333 507.315 503.1 498.548L498.504 493.952L493.907 489.356C484.142 499.121 476.604 509.801 471.395 521.404L477.324 524.066ZM498.504 493.952L503.1 498.548C511.985 489.663 521.374 483.094 531.252 478.715L528.618 472.773L525.984 466.83C514.462 471.938 503.775 479.489 493.907 489.356L498.504 493.952ZM528.618 472.773L531.28 478.703C541.335 474.188 551.507 471.863 561.838 471.66L561.71 465.161L561.583 458.663C549.411 458.901 537.521 461.65 525.956 466.843L528.618 472.773ZM561.71 465.161L561.903 471.659C572.165 471.354 582.108 473.076 591.782 476.844L594.141 470.787L596.5 464.73C585.216 460.335 573.538 458.307 561.518 458.664L561.71 465.161ZM594.141 470.787L591.859 476.873C601.504 480.49 610.383 486.294 618.501 494.412L623.097 489.815L627.693 485.219C618.383 475.908 607.958 469.026 596.424 464.701L594.141 470.787ZM623.097 489.815L618.501 494.412C626.618 502.529 632.487 511.473 636.218 521.254L642.291 518.937L648.364 516.62C643.932 505.001 637.005 494.531 627.693 485.219L623.097 489.815ZM642.291 518.937L636.234 521.296C640.002 530.97 641.724 540.913 641.42 551.175L647.917 551.368L654.414 551.561C654.771 539.54 652.743 527.862 648.348 516.578L642.291 518.937ZM647.917 551.368L641.42 551.175C641.116 561.411 638.737 571.55 634.21 581.633L640.14 584.295L646.07 586.957C651.25 575.419 654.056 563.607 654.414 551.561L647.917 551.368ZM640.14 584.295L634.198 581.661C629.819 591.539 623.25 600.928 614.364 609.813L618.961 614.409L623.557 619.005C633.424 609.138 640.975 598.451 646.082 586.929L640.14 584.295ZM591.825 587.273L596.421 591.869C601.381 586.91 605.192 581.357 607.753 575.212L601.753 572.712L595.753 570.212C593.901 574.657 591.094 578.812 587.229 582.677L591.825 587.273ZM601.753 572.712L607.727 575.273C610.39 569.058 611.69 562.629 611.561 556.039L605.062 556.166L598.563 556.294C598.654 560.955 597.748 565.556 595.778 570.152L601.753 572.712ZM605.062 556.166L611.561 556.044C611.433 549.269 609.895 542.669 607.016 536.286L601.091 538.958L595.165 541.63C597.361 546.499 598.47 551.371 598.563 556.289L605.062 556.166ZM601.091 538.958L607.077 536.425C604.285 529.826 600.082 523.793 594.601 518.312L590.005 522.908L585.408 527.504C589.855 531.951 593.043 536.617 595.104 541.491L601.091 538.958ZM590.005 522.908L594.601 518.312C589.027 512.738 582.978 508.508 576.43 505.812L573.955 511.822L571.48 517.832C576.183 519.769 580.834 522.93 585.408 527.504L590.005 522.908ZM573.955 511.822L576.627 505.897C570.226 503.01 563.638 501.516 556.912 501.516L556.912 508.016L556.912 514.516C561.658 514.516 566.432 515.56 571.283 517.747L573.955 511.822ZM556.912 508.016L557.162 501.521C550.438 501.263 543.909 502.499 537.64 505.186L540.2 511.16L542.761 517.135C547.302 515.189 551.914 514.329 556.662 514.512L556.912 508.016ZM540.2 511.16L537.7 505.16C531.555 507.721 526.003 511.532 521.043 516.492L525.64 521.088L530.236 525.684C534.101 521.819 538.256 519.012 542.7 517.16L540.2 511.16ZM525.64 521.088L521.043 516.492C516.082 521.453 512.234 527.043 509.572 533.254L515.546 535.814L521.521 538.375C523.492 533.775 526.372 529.548 530.236 525.684L525.64 521.088ZM515.546 535.814L509.546 533.314C506.987 539.456 505.777 545.921 505.904 552.649L512.403 552.526L518.901 552.403C518.808 547.438 519.693 542.762 521.546 538.314L515.546 535.814ZM512.403 552.526L505.904 552.653C506.032 559.19 507.507 565.685 510.222 572.101L516.208 569.569L522.194 567.036C520.056 561.98 518.994 557.113 518.901 552.399L512.403 552.526ZM516.208 569.569L510.259 572.186C513.065 578.566 517.326 584.512 522.863 590.049L527.46 585.453L532.056 580.857C527.445 576.246 524.204 571.602 522.158 566.951L516.208 569.569ZM527.46 585.453L522.863 590.049C528.307 595.493 534.238 599.728 540.672 602.63L543.344 596.705L546.016 590.779C541.198 588.606 536.54 585.341 532.056 580.857L527.46 585.453ZM543.344 596.705L540.811 602.691C547.21 605.398 553.717 606.918 560.302 607.171L560.552 600.676L560.802 594.18C555.916 593.993 550.951 592.865 545.877 590.718L543.344 596.705ZM560.552 600.676L560.552 607.176C567.146 607.176 573.512 605.903 579.599 603.366L577.099 597.366L574.599 591.366C570.096 593.243 565.43 594.176 560.552 594.176L560.552 600.676ZM577.099 597.366L579.659 603.341C585.87 600.679 591.46 596.83 596.421 591.869L591.825 587.273L587.229 582.677C583.365 586.541 579.137 589.421 574.538 591.392L577.099 597.366ZM698.168 530.569L693.572 535.165L698.168 539.761L702.765 535.165L698.168 530.569ZM582.344 414.744L577.748 410.148L573.152 414.744L577.748 419.341L582.344 414.744ZM609.315 387.774L609.922 381.302L606.88 381.017L604.719 383.178L609.315 387.774ZM750.289 401.011L754.885 405.607L764.661 395.832L750.897 394.539L750.289 401.011ZM737.549 413.752L732.952 418.348L737.549 422.944L742.145 418.348L737.549 413.752ZM660.443 336.646L655.847 332.05L651.25 336.646L655.847 341.242L660.443 336.646ZM692.543 304.546L697.139 299.95L692.543 295.354L687.946 299.95L692.543 304.546ZM808.367 420.37L812.963 424.966L817.559 420.37L812.963 415.774L808.367 420.37ZM781.396 447.341L780.789 453.812L783.831 454.098L785.992 451.937L781.396 447.341ZM640.422 434.104L635.826 429.507L626.05 439.283L639.814 440.575L640.422 434.104ZM653.162 421.363L657.759 416.767L653.162 412.171L648.566 416.767L653.162 421.363ZM730.268 498.469L734.864 503.065L739.461 498.469L734.864 493.872L730.268 498.469ZM698.168 530.569L702.765 525.972L586.94 410.148L582.344 414.744L577.748 419.341L693.572 535.165L698.168 530.569ZM582.344 414.744L586.94 419.341L613.911 392.37L609.315 387.774L604.719 383.178L577.748 410.148L582.344 414.744ZM609.315 387.774L608.707 394.245L749.682 407.483L750.289 401.011L750.897 394.539L609.922 381.302L609.315 387.774ZM750.289 401.011L745.693 396.415L732.952 409.155L737.549 413.752L742.145 418.348L754.885 405.607L750.289 401.011ZM737.549 413.752L742.145 409.155L665.039 332.05L660.443 336.646L655.847 341.242L732.952 418.348L737.549 413.752ZM660.443 336.646L665.039 341.242L697.139 309.142L692.543 304.546L687.946 299.95L655.847 332.05L660.443 336.646ZM692.543 304.546L687.946 309.142L803.771 424.966L808.367 420.37L812.963 415.774L697.139 299.95L692.543 304.546ZM808.367 420.37L803.771 415.774L776.8 442.744L781.396 447.341L785.992 451.937L812.963 424.966L808.367 420.37ZM781.396 447.341L782.004 440.869L641.029 427.632L640.422 434.104L639.814 440.575L780.789 453.812L781.396 447.341ZM640.422 434.104L645.018 438.7L657.759 425.959L653.162 421.363L648.566 416.767L635.826 429.507L640.422 434.104ZM653.162 421.363L648.566 425.959L725.672 503.065L730.268 498.469L734.864 493.872L657.759 416.767L653.162 421.363ZM730.268 498.469L725.672 493.872L693.572 525.972L698.168 530.569L702.765 535.165L734.864 503.065L730.268 498.469ZM826.016 395.11L825.916 388.611L825.916 388.611L826.016 395.11ZM799.211 368.305L805.703 368.614L805.706 368.561L805.707 368.508L799.211 368.305ZM826.016 341.5L826.219 347.997L826.272 347.995L826.325 347.993L826.016 341.5ZM852.821 368.305L846.321 368.205L852.821 368.305ZM844.713 387.002L840.117 382.406C835.958 386.565 831.316 388.528 825.916 388.611L826.016 395.11L826.116 401.609C835.056 401.472 842.878 398.029 849.309 391.598L844.713 387.002ZM826.016 395.11L825.916 388.611C820.629 388.692 816.002 386.824 811.749 382.571L807.153 387.168L802.557 391.764C809.114 398.321 817.062 401.748 826.116 401.609L826.016 395.11ZM807.153 387.168L811.749 382.571C807.213 378.036 805.472 373.463 805.703 368.614L799.211 368.305L792.718 367.996C792.287 377.045 795.841 385.048 802.557 391.764L807.153 387.168ZM799.211 368.305L805.707 368.508C805.873 363.207 807.877 358.572 812.08 354.369L807.484 349.773L802.888 345.177C796.501 351.564 792.989 359.283 792.714 368.102L799.211 368.305ZM807.484 349.773L812.08 354.369C816.283 350.166 820.918 348.162 826.219 347.997L826.016 341.5L825.813 335.003C816.994 335.279 809.274 338.79 802.888 345.177L807.484 349.773ZM826.016 341.5L826.325 347.993C831.174 347.762 835.746 349.502 840.282 354.038L844.878 349.442L849.475 344.846C842.759 338.13 834.756 334.576 825.706 335.007L826.016 341.5ZM844.878 349.442L840.282 354.038C844.535 358.291 846.403 362.918 846.321 368.205L852.821 368.305L859.32 368.405C859.459 359.351 856.032 351.403 849.475 344.846L844.878 349.442ZM852.821 368.305L846.321 368.205C846.238 373.605 844.276 378.247 840.117 382.406L844.713 387.002L849.309 391.598C855.74 385.168 859.182 377.345 859.32 368.405L852.821 368.305Z" fill="url(#paint1_linear_1_2)" mask="url(#path-3-outside-1_1_2)"/>
</g>
<defs>
<filter id="filter0_di_1_2" x="0" y="0" width="1151" height="1120" filterUnits="userSpaceOnUse" color-interpolation-filters="sRGB">
<feFlood flood-opacity="0" result="BackgroundImageFix"/>
<feColorMatrix in="SourceAlpha" type="matrix" values="0 0 0 0 0 0 0 0 0 0 0 0 0 0 0 0 0 0 127 0" result="hardAlpha"/>
<feOffset dy="10"/>
<feGaussianBlur stdDeviation="10"/>
<feComposite in2="hardAlpha" operator="out"/>
<feColorMatrix type="matrix" values="0 0 0 0 0.702453 0 0 0 0 0.755061 0 0 0 0 0.989407 0 0 0 1 0"/>
<feBlend mode="normal" in2="BackgroundImageFix" result="effect1_dropShadow_1_2"/>
<feBlend mode="normal" in="SourceGraphic" in2="effect1_dropShadow_1_2" result="shape"/>
<feColorMatrix in="SourceAlpha" type="matrix" values="0 0 0 0 0 0 0 0 0 0 0 0 0 0 0 0 0 0 127 0" result="hardAlpha"/>
<feMorphology radius="15" operator="dilate" in="SourceAlpha" result="effect2_innerShadow_1_2"/>
<feOffset dx="51"/>
<feGaussianBlur stdDeviation="55"/>
<feComposite in2="hardAlpha" operator="arithmetic" k2="-1" k3="1"/>
<feColorMatrix type="matrix" values="0 0 0 0 0.702453 0 0 0 0 0.755061 0 0 0 0 0.989407 0 0 0 1 0"/>
<feBlend mode="normal" in2="shape" result="effect2_innerShadow_1_2"/>
</filter>
<linearGradient id="paint0_linear_1_2" x1="459.237" y1="449.887" x2="660.763" y2="651.413" gradientUnits="userSpaceOnUse">
<stop stop-color="#1E1E1E"/>
<stop offset="1" stop-color="#2770F4"/>
</linearGradient>
<linearGradient id="paint1_linear_1_2" x1="459.237" y1="449.887" x2="660.763" y2="651.413" gradientUnits="userSpaceOnUse">
<stop stop-color="#255CC0"/>
<stop offset="1" stop-color="#213252"/>
</linearGradient>
</defs>
</svg>
